<svg width="25" height="16" viewBox="0 0 25 16" fill="none" xmlns="http://www.w3.org/2000/svg">
<path d="M9.39828 4.13754L6.15473 11.8739H4.04584L2.45272 5.70774C2.36103 5.32951 2.26934 5.19198 1.98281 5.03152C1.48997 4.76791 0.69914 4.51576 0 4.36676L0.0458453 4.13754H3.44986C3.88539 4.13754 4.27507 4.42407 4.36676 4.92837L5.2149 9.39828L7.30086 4.13754H9.39828ZM17.6848 9.35244C17.6963 7.31232 14.8653 7.19771 14.8768 6.29226C14.8882 6.01719 15.1519 5.7192 15.7249 5.63897C16.0115 5.60458 16.8023 5.5702 17.6963 5.98281L18.0516 4.34384C17.5702 4.17192 16.9513 4 16.1834 4C14.2006 4 12.8138 5.05444 12.8023 6.55587C12.7908 7.66762 13.7994 8.28653 14.5559 8.66476C15.3352 9.04298 15.5989 9.28367 15.5989 9.62751C15.5874 10.1433 14.9799 10.3725 14.4069 10.384C13.3983 10.3954 12.8138 10.1089 12.3553 9.89112L11.9885 11.5874C12.4585 11.8052 13.318 11.9885 14.212 12C16.3095 12 17.6733 10.957 17.6848 9.35244ZM22.9112 11.8739H24.7564L23.1404 4.13754H21.4327C21.043 4.13754 20.7221 4.3553 20.5845 4.69914L17.5817 11.8625H19.6791L20.0917 10.7049H22.659L22.9112 11.8739ZM20.6762 9.13467L21.7307 6.23496L22.3381 9.13467H20.6762ZM12.2521 4.13754L10.6017 11.8739H8.60745L10.2579 4.13754H12.2521Z" fill="#2660AC"/>
</svg>
