<svg width="61" height="16" viewBox="0 0 61 16" fill="none" xmlns="http://www.w3.org/2000/svg">
<g clip-path="url(#clip0_1_3637)">
<path d="M17.7938 7.4843L18.0279 6.7398L17.2536 6.7639C17.1882 6.7639 16.7128 6.7505 16.2515 6.4181C16.2859 6.42147 16.3203 6.42613 16.3554 6.42613C16.8301 6.42613 17.2894 6.142 17.4735 5.73587L17.8067 5.00207C17.3892 5.00743 17.0075 4.95517 17.0075 4.95517C17.0041 4.95447 16.7033 4.9163 16.3554 4.5631C16.1058 4.3098 15.797 4.17573 15.4624 4.17573C15.3161 4.17573 15.1853 4.20187 15.0727 4.2374C15.0902 4.17777 15.107 4.11743 15.1165 4.0551C15.223 3.3682 14.778 2.84484 14.778 2.84484L14.196 2.12844L13.8352 2.97013C13.8338 2.97282 13.7428 3.16987 13.5796 3.26635C13.5303 3.01906 13.4096 2.74096 13.1513 2.47489C12.6644 1.97361 12.0716 1.89922 11.7614 1.89922C11.6177 1.89922 11.5153 1.91464 11.4903 1.91865L10.7876 2.05607C10.828 1.89992 10.9144 1.62848 11.0722 1.38388L11.46 0.783433L10.4841 0.89401L10.1732 0.237904L9.57167 0.54619L9.0153 0L8.46023 0.54619L7.85667 0.237904L7.54643 0.89401L6.5713 0.783433L6.9597 1.38388C7.11753 1.62848 7.20387 1.89922 7.24367 2.05537L6.57327 1.92403L6.55037 1.92002C6.51663 1.91464 6.41483 1.89922 6.2705 1.89922C5.96027 1.89922 5.3675 1.97427 4.8819 2.47489C4.62293 2.7403 4.50223 3.01906 4.45233 3.26635C4.2905 3.17119 4.2001 2.97683 4.2001 2.97683L3.83863 2.13042L3.24722 2.85154C3.17503 2.94466 2.8183 3.43727 2.9154 4.05647C2.92553 4.11813 2.94171 4.17843 2.95925 4.2381C2.8473 4.20257 2.71645 4.17643 2.57013 4.17643C2.23562 4.17643 1.92676 4.31047 1.67656 4.5638C1.32989 4.91563 1.03046 4.95517 1.03319 4.95517C1.03319 4.95517 0.716883 5.01143 0.227282 5.0027L0.5584 5.73657C0.742533 6.14337 1.20243 6.42683 1.67656 6.42683C1.71231 6.42683 1.74668 6.4221 1.78176 6.41877C1.32182 6.75117 0.84637 6.76457 0.78903 6.76523L0 6.7398L0.23874 7.48363C0.358793 7.867 0.76003 8.5023 1.52888 8.57063C1.44523 8.91913 1.25977 9.30917 0.85245 9.47737L0.265052 9.71793L0.58537 10.2722C0.766113 10.5711 1.19031 10.9209 1.79454 10.9209C1.9254 10.9202 2.05149 10.9075 2.17291 10.882C2.20393 11.0187 2.24303 11.1555 2.28891 11.2908C2.46894 11.8229 2.31385 12.1942 2.31182 12.1982L2.02183 12.802L2.66925 12.9716C2.67736 12.9742 2.87291 13.0272 3.11773 13.0272C3.22902 13.0272 3.33487 13.0158 3.4347 12.9924C3.5102 12.9749 3.5824 12.9515 3.65183 12.9233C3.73547 13.0727 3.8373 13.2088 3.956 13.3307C4.37077 13.7536 4.95817 13.9681 5.70267 13.9681H5.70537L6.2368 13.9614L5.13887 14.4144L5.97243 14.8145C6.27523 14.9613 6.63467 15.1348 7.0002 15.2675L6.89633 15.5503L7.18363 15.6803C7.20923 15.6917 7.76157 15.9377 8.68013 15.9899C8.68013 15.9899 8.902 16 9.02403 16C9.1461 16 9.36527 15.9893 9.36527 15.9893C10.2778 15.9357 10.826 15.6924 10.8517 15.6803L11.1396 15.5497L11.0344 15.2662C11.4107 15.1295 11.783 14.9492 12.073 14.8085L12.891 14.4137L11.7964 13.9601L12.3299 13.9668C13.0751 13.9668 13.6632 13.7523 14.0772 13.3288C14.1953 13.2075 14.2971 13.0714 14.3814 12.922C14.4509 12.9501 14.5237 12.9736 14.5992 12.991C14.6984 13.0144 14.8043 13.0259 14.9155 13.0259C15.1563 13.0259 15.3539 12.9729 15.3593 12.9716L16.0094 12.8007L15.7261 12.2083C15.7194 12.1928 15.5643 11.8222 15.7444 11.2895C15.7902 11.1534 15.8286 11.0167 15.8597 10.8807C15.9818 10.9061 16.1092 10.9195 16.2407 10.9195C17.0102 10.9195 17.3791 10.3814 17.4506 10.2648L17.7675 9.71663L17.1801 9.4767C16.7721 9.30847 16.5874 8.91777 16.5044 8.57C17.2624 8.50563 17.6697 7.87033 17.7938 7.4843ZM7.29487 2.31204L7.28683 2.31407L7.29357 2.30535L7.29487 2.31204Z" fill="white"/>
<path d="M9.01384 2.27832C8.39205 2.27898 7.92608 2.48136 7.82422 2.71927L9.01384 3.18573L10.2035 2.71927C10.1023 2.48136 9.6363 2.27898 9.01384 2.27832Z" fill="white"/>
<path d="M9.02883 14.6263H9.02747H9.01733H9.00587H9.0052C8.6282 14.629 8.1096 14.5519 7.8594 14.4795L7.55859 15.2884C7.75689 15.3588 8.4286 15.4928 9.01733 15.4928C9.60474 15.4928 10.2771 15.3581 10.4747 15.2884L10.1746 14.4795C9.92374 14.5525 9.40577 14.629 9.02883 14.6263Z" fill="white"/>
<path d="M11.3053 13.8232C11.0814 13.9492 10.5817 14.1382 10.291 14.226L10.5351 14.8941C10.9849 14.7721 11.3558 14.6294 11.6627 14.4766L11.1562 14.3091L11.3053 13.8232Z" fill="white"/>
<path d="M6.72853 13.8232L6.87823 14.3091L6.37109 14.4766C6.67726 14.6294 7.05019 14.7721 7.49799 14.8941L7.74213 14.226C7.45279 14.1382 6.95239 13.9485 6.72853 13.8232Z" fill="white"/>
<path d="M9.01659 1.5039C9.48529 1.5039 9.94522 1.61514 10.2986 1.81087C10.331 1.70294 10.3762 1.57226 10.4375 1.43555L10.304 1.45163L10.1637 1.4664L10.1044 1.33973L9.92566 0.964457L9.59992 1.1333L9.47316 1.19764L9.37199 1.09848L9.01792 0.75L8.66456 1.09848L8.56339 1.19764L8.43662 1.1333L8.10886 0.964457L7.93216 1.33973L7.87149 1.4664L7.73119 1.45163L7.59766 1.43555C7.65906 1.57292 7.70356 1.70294 7.73659 1.81087C8.09066 1.61514 8.54922 1.5039 9.01659 1.5039Z" fill="white"/>
<path d="M16.1722 5.84329C16.233 5.86406 16.295 5.87343 16.3564 5.87343C16.6214 5.87343 16.8777 5.70323 16.966 5.50819C16.966 5.50819 16.4798 5.47873 15.9571 4.95129C15.7906 4.78039 15.6145 4.72949 15.4635 4.72949C15.2288 4.72949 15.0527 4.85279 15.0527 4.85279C15.684 5.18653 15.8128 5.72266 16.1722 5.84329Z" fill="white"/>
<path d="M1.6754 5.87343C1.73675 5.87343 1.7988 5.86406 1.85817 5.84329C2.21895 5.72266 2.34843 5.18653 2.97969 4.85279C2.97969 4.85279 2.80296 4.72949 2.56964 4.72949C2.41789 4.72949 2.24187 4.78039 2.07461 4.95129C1.55266 5.47873 1.06641 5.50819 1.06641 5.50819C1.15341 5.70323 1.41035 5.87343 1.6754 5.87343Z" fill="white"/>
<path d="M16.3428 8.02312C16.3536 8.02375 16.363 8.02375 16.3745 8.02375C17.0361 8.02375 17.2607 7.31938 17.2607 7.31938H17.2478C17.1265 7.31938 16.1425 7.29128 15.4472 6.41268C14.9893 5.83505 14.6143 5.32705 13.8731 5.12732L13.8003 5.11458L13.7841 5.04088C13.7639 4.92828 13.8415 4.82308 14.0175 4.70915C15.0399 4.04372 14.3459 3.19527 14.3459 3.19527C14.3459 3.19527 14.0539 3.87415 13.4004 3.87415C13.3849 3.87415 13.368 3.87345 13.3519 3.87345C13.2777 3.86945 13.2062 3.86675 13.134 3.85138L13.0133 3.82788C13.0133 3.82788 13.1995 3.32462 12.7503 2.86221C12.4117 2.51307 11.9997 2.4541 11.7616 2.4541C11.6416 2.4541 11.5654 2.46948 11.5654 2.46948C11.7913 2.763 11.9545 3.24956 11.6935 3.54978C11.4683 3.80778 10.918 3.82052 10.918 4.20518C10.918 4.36805 11.0711 4.55838 11.3462 4.72925C12.1737 5.24728 12.9951 5.93418 13.3363 6.85502C13.7632 8.00365 13.2824 8.76565 12.5959 9.20258C12.5959 9.20258 12.811 9.39958 13.1233 9.42438C13.1866 9.43042 13.2487 9.43308 13.3067 9.43308C13.9656 9.43308 14.3061 9.12615 14.3061 9.12615C14.3061 9.12615 14.2501 9.55035 13.9069 9.94442C13.5906 10.3083 13.1752 10.5221 12.5419 10.5315C12.5419 10.5315 12.5217 10.8237 12.8022 11.0763C12.9816 11.2358 13.3964 11.2881 13.3964 11.2881C13.3964 11.2881 12.6201 11.4442 12.5345 12.5835C12.4879 13.2007 12.3295 13.4152 12.3295 13.4152H12.3437C14.1449 13.4152 14.0984 11.8799 14.0984 11.8799C14.0984 11.8799 14.2238 12.3342 14.7263 12.4528C14.7869 12.4689 14.8517 12.475 14.9137 12.475C15.0756 12.475 15.2159 12.4374 15.2159 12.4374C15.2159 12.4374 14.9529 11.8859 15.2138 11.1145C15.4303 10.4745 15.3953 10.0001 15.3953 10.0001C15.3953 10.0001 15.638 10.3646 16.2396 10.368H16.2457C16.7468 10.368 16.9652 9.99068 16.9652 9.99068C15.7642 9.49542 15.8829 7.89645 15.8829 7.89645C15.8829 7.89645 16.0387 8.01168 16.3428 8.02312ZM15.9813 9.69308C15.493 9.45388 15.1842 8.81858 15.1093 8.58935C15.0284 9.84925 14.4093 10.7238 13.6857 11.5655C13.31 12.0018 13.1792 12.426 13.1792 12.426C13.1792 12.426 13.2514 11.9455 13.5764 11.5542C14.2515 10.7479 14.8929 9.74472 14.9407 8.58468C14.9738 7.77512 14.764 7.11838 14.437 6.57758C14.6197 7.14118 14.5941 7.83142 13.973 8.47542C13.973 8.47542 15.2091 7.00308 13.4807 5.49392C12.7887 4.91962 12.0321 4.56508 11.6423 4.31378C13.0504 4.77015 13.7376 4.26752 13.7376 4.26752C13.2878 4.65485 12.7058 4.64815 12.345 4.59255C12.4428 4.64015 12.5446 4.68972 12.6545 4.74802C13.8415 5.38872 14.9084 6.44285 15.0904 7.90315V7.89172C15.3669 9.32518 15.9813 9.69308 15.9813 9.69308Z" fill="white"/>
<path d="M4.63575 11.2891C4.63575 11.2891 5.05052 11.2375 5.22992 11.0773C5.50975 10.8246 5.49025 10.5325 5.49025 10.5325C4.85632 10.5237 4.44155 10.3093 4.12325 9.94609C3.78265 9.55203 3.72602 9.1278 3.72602 9.1278C3.72602 9.1278 4.06655 9.43476 4.72478 9.43476C4.78415 9.43476 4.84552 9.43206 4.90888 9.42603C5.22115 9.40123 5.43695 9.20419 5.43695 9.20419C4.75038 8.76726 4.26892 8.00463 4.69512 6.85599C5.03705 5.93583 5.85775 5.24826 6.68528 4.73023C6.96042 4.55936 7.11348 4.36966 7.11348 4.20616C7.11348 3.82149 6.56385 3.80876 6.33858 3.55076C6.07765 3.25054 6.24152 2.76332 6.46675 2.47046C6.46675 2.47046 6.39188 2.45508 6.27115 2.45508C6.03378 2.45508 5.62172 2.51405 5.28318 2.86319C4.83268 3.3256 5.01952 3.82886 5.01952 3.82886L4.89878 3.85236C4.82665 3.86773 4.75445 3.87043 4.68095 3.87443C4.66412 3.87443 4.64925 3.87513 4.63308 3.87513C3.97825 3.87513 3.68758 3.19691 3.68758 3.19691C3.68758 3.19691 2.99362 4.04536 4.01532 4.71079C4.19135 4.82473 4.26825 4.92993 4.24802 5.04253L4.23178 5.11626L4.15762 5.12899C3.41782 5.32869 3.04219 5.83666 2.58428 6.41433C1.89031 7.29159 0.907714 7.32036 0.785018 7.32036H0.771484C0.771484 7.32036 0.996081 8.02473 1.65765 8.02473C1.66845 8.02473 1.67788 8.02473 1.68934 8.02409C1.99348 8.01333 2.14994 7.89743 2.14994 7.89743C2.14994 7.89743 2.26731 9.49569 1.06756 9.99166C1.06756 9.99166 1.28608 10.369 1.78714 10.369H1.79322C2.39542 10.3656 2.63756 10.001 2.63756 10.001C2.63756 10.001 2.60248 10.4755 2.8183 11.1155C3.07925 11.8869 2.8176 12.4384 2.8176 12.4384C2.8176 12.4384 2.95788 12.4759 3.11905 12.4759C3.18177 12.4759 3.24585 12.4699 3.30588 12.4538C3.80758 12.3352 3.93372 11.8808 3.93372 11.8808C3.93372 11.8808 3.88785 13.4161 5.68918 13.4161H5.70195C5.70195 13.4161 5.54418 13.2017 5.49832 12.5845C5.41202 11.4452 4.63575 11.2891 4.63575 11.2891ZM4.34648 11.5665C3.62285 10.7248 3.00442 9.85023 2.9228 8.59033C2.84796 8.81889 2.54042 9.45486 2.05219 9.69406C2.05219 9.69406 2.66585 9.32616 2.9417 7.89269V7.90413C3.12447 6.44453 4.19068 5.38969 5.37825 4.74899C5.48685 4.69003 5.59002 4.64046 5.68715 4.59353C5.32635 4.64913 4.74435 4.65583 4.29452 4.26849C4.29452 4.26849 4.98172 4.77113 6.38918 4.31476C5.99942 4.56606 5.24338 4.92059 4.55145 5.49489C2.82231 7.00406 4.05915 8.47639 4.05915 8.47639C3.43738 7.83169 3.41245 7.14216 3.59518 6.57856C3.26744 7.12003 3.05836 7.77609 3.09208 8.58566C3.13928 9.74569 3.78062 10.7489 4.45435 11.5551C4.78012 11.9458 4.85362 12.427 4.85362 12.427C4.85362 12.427 4.72138 12.0028 4.34648 11.5665Z" fill="white"/>
<path d="M7.68511 5.67349C7.71474 5.70495 7.74374 5.73919 7.77144 5.77332C7.77818 5.78139 7.78421 5.78875 7.79094 5.79815C7.81661 5.83229 7.84291 5.86852 7.86787 5.90535C7.87324 5.91272 7.87867 5.92145 7.88471 5.93012C7.91507 5.97572 7.94341 6.02265 7.97171 6.07092C8.23134 6.51652 8.64747 6.78259 9.01634 6.78325C9.38591 6.78259 9.80068 6.51652 10.0617 6.07092C10.0907 6.02129 10.1197 5.97305 10.15 5.92815C10.1547 5.92145 10.1595 5.91542 10.1635 5.90872C10.1891 5.87052 10.2161 5.83299 10.2444 5.79679C10.2505 5.78875 10.2559 5.78205 10.2613 5.77535C10.2903 5.73982 10.3199 5.70499 10.3503 5.67279C10.3557 5.66745 10.3597 5.66275 10.3644 5.65875C10.4966 5.52405 10.6544 5.42149 10.8608 5.36455L10.7691 5.31162H10.7637L10.3981 5.10052L10.0225 4.88672L9.01904 5.42955L9.01634 5.42752L9.01431 5.42955L8.01014 4.88672L7.63521 5.09982L7.26901 5.31092H7.26494L7.17188 5.36389C7.37891 5.42082 7.53604 5.52202 7.66891 5.65672C7.67494 5.66209 7.67901 5.66812 7.68511 5.67349ZM8.61034 5.62992H9.03521H9.45941V5.91942C9.35964 5.79815 9.16541 5.82295 9.16541 5.82295V6.24045C9.16541 6.24045 9.17281 6.44552 9.24494 6.53462H9.03521H8.82481C8.89831 6.44619 8.90508 6.24045 8.90508 6.24045V5.82295C8.90508 5.82295 8.71151 5.79815 8.61034 5.91942V5.62992Z" fill="white"/>
<path d="M8.92952 5.06856V3.37376L7.84375 3.00781L8.13035 4.65039L8.92952 5.06856ZM8.69618 3.78993V4.06199L8.64358 4.03786C8.64088 4.03586 8.56402 4.01843 8.42912 3.91253C8.20658 3.74099 8.20255 3.58283 8.20255 3.58283L8.69618 3.78993Z" fill="white"/>
<path d="M9.9014 4.65039L10.1867 3.00781L9.10156 3.37376V5.06856L9.9014 4.65039ZM9.33493 3.78993L9.82853 3.58349C9.82853 3.58349 9.82453 3.74166 9.6013 3.91319C9.4671 4.01909 9.38953 4.03649 9.38683 4.03853L9.3342 4.06263V3.78993H9.33493Z" fill="white"/>
<path d="M7.39271 8.99719C7.49861 9.03535 7.62674 9.04342 7.69214 9.04342C7.69487 9.03535 7.69821 9.02529 7.70161 9.01325C7.70764 8.99382 7.71307 8.97505 7.71714 8.95359C7.73534 8.85982 7.74207 8.75325 7.7434 8.68488C7.69887 8.65738 7.63617 8.60845 7.60114 8.53541C7.56068 8.45098 7.50334 8.41211 7.41901 8.41211C7.30978 8.41211 7.19245 8.47711 7.14252 8.50798C7.10279 8.74182 7.27605 8.95429 7.39271 8.99719Z" fill="white"/>
<path d="M9.79624 8.09961C9.59461 8.31741 9.20007 8.69675 9.18051 8.71618L9.15691 8.74032L7.90998 8.72085C7.90928 8.84352 7.88904 8.94805 7.86951 9.02445C7.86614 9.03719 7.86277 9.05059 7.85938 9.06399L9.34304 9.32872C9.49747 9.22149 9.92234 8.91318 10.0869 8.79258C9.96684 8.61835 9.95537 8.41191 9.98234 8.26651C9.90414 8.21624 9.84411 8.15994 9.79624 8.09961Z" fill="white"/>
<path d="M9.96232 6.60653C9.67499 6.88999 9.39919 6.99452 9.15305 7.01866C9.10852 7.02336 9.06335 7.02599 9.01748 7.02599H9.01408H9.01138C8.96555 7.02599 8.91968 7.02336 8.87515 7.01866C8.83202 7.01462 8.78685 7.00792 8.74168 6.99789C8.72545 7.06152 8.70522 7.19489 8.76322 7.32089C8.81515 7.43549 8.92105 7.52059 9.07548 7.57692L9.12738 7.59699L9.12808 7.65262C9.12808 7.66935 9.14022 8.02992 9.53609 8.12975C9.60082 8.06342 9.65949 8.00379 9.70269 7.95415C9.62172 7.76519 9.66419 7.57219 9.78155 7.47769C9.77619 7.49779 9.72492 7.97095 10.1067 8.14649L10.1694 8.17602L10.1505 8.24235C10.1444 8.26245 10.0169 8.72018 10.4789 8.89038L10.5605 8.92122L10.5241 9.00032C10.516 9.01772 10.3346 9.43325 10.7615 9.66911H11.6874V8.93865C11.3583 8.89842 11.2187 8.63575 11.183 8.44942C11.0299 8.42329 10.9112 8.35762 10.8302 8.25039C10.636 7.99639 10.8033 7.76385 10.8053 7.75112C10.8046 7.75315 10.8053 8.00109 10.9591 8.15389C11.0353 8.22759 11.1257 8.28459 11.2625 8.29732L11.33 8.30335L11.3361 8.37172C11.3374 8.38642 11.3745 8.72152 11.6881 8.77445L11.6874 7.28269C11.6874 7.05149 11.7555 6.81896 11.8371 6.60449H9.96232V6.60653Z" fill="white"/>
<path d="M7.4722 7.2906L7.44727 8.2409L7.5558 8.257L7.82152 7.34556L7.68666 7.06543L7.4722 7.2906Z" fill="white"/>
<path d="M10.4036 11.6502C10.4117 11.6502 10.4211 11.6515 10.4299 11.6535C10.5951 11.7005 10.6369 12.2929 10.9269 12.3458C10.9552 12.3518 10.9815 12.3532 11.0045 12.3532C11.0881 12.3532 11.138 12.3176 11.1919 12.2547C11.1919 12.2547 11.0463 12.0268 10.937 11.8734C10.792 11.6723 10.6794 11.429 10.4097 11.429C10.4036 11.429 10.3955 11.429 10.3888 11.4297C10.2997 11.4344 10.2451 11.4773 10.2451 11.4773C10.1358 11.4089 10.034 11.3855 9.9416 11.3855C9.77237 11.3855 9.64087 11.4626 9.5754 11.4626H9.57274L8.9698 11.4036C8.8754 11.3949 8.80123 11.3004 8.77427 11.2635C8.7675 11.2534 8.76413 11.2474 8.76413 11.2474C8.76413 11.2313 8.76413 11.2146 8.7628 11.1998C8.74257 10.71 8.36087 10.5002 8.2253 10.4968C8.2253 10.4968 8.24146 10.4037 8.2044 10.3682L8.07153 10.5283L7.6352 10.3105L7.9461 10.6718L7.6824 10.9659C7.64933 10.9995 7.6534 11.0451 7.6669 11.0638L7.78086 11.1637L7.9252 11.0765C7.9326 11.0712 7.94543 11.0698 7.9616 11.0698C8.0014 11.0698 8.06143 11.0799 8.11536 11.0799C8.17403 11.0799 8.2253 11.0671 8.23136 11.0122C8.21316 11.1938 8.0439 11.5094 8.15516 11.7574L8.23746 11.9444L7.70466 11.868L7.45513 12.2868C7.37826 12.4262 7.36613 12.577 7.4403 12.6588L7.53333 12.7747C7.53333 12.7747 7.6642 12.6366 7.69386 12.5462L7.65136 12.4999C7.61563 12.4611 7.61766 12.4262 7.63926 12.384L7.7957 12.126L8.4249 12.2734L8.45793 12.2171C8.50043 12.1468 8.56183 12.1253 8.62927 12.1253C8.6569 12.1253 8.68523 12.1287 8.7149 12.1334C8.8316 12.1562 9.0238 12.187 9.216 12.187C9.42707 12.187 9.63614 12.1495 9.74737 12.0255C9.97534 12.3612 10.4373 12.4148 10.4009 12.585L10.2795 13.1601C10.3598 13.1567 10.4373 13.1513 10.5108 13.1413L10.6261 12.5428C10.639 12.4778 10.6511 12.39 10.6511 12.39C10.6066 12.3451 10.4987 12.25 10.438 12.1347C10.3564 11.9792 10.4009 11.8981 10.3247 11.6957C10.3274 11.6971 10.3503 11.6502 10.4036 11.6502ZM8.04996 10.8098C8.01893 10.8091 7.99666 10.783 7.998 10.7522C8.00073 10.7227 8.02566 10.6992 8.056 10.7019C8.08703 10.7033 8.1093 10.7301 8.10796 10.7596C8.10523 10.789 8.07963 10.8118 8.04996 10.8098Z" fill="white"/>
<path d="M7.18946 12.1934C7.18946 12.1934 7.39782 12.1083 7.41669 12.0473L7.38905 11.9782C7.36949 11.9333 7.37219 11.8844 7.40995 11.8576L7.63519 11.7028L8.01152 11.7745C8.01152 11.7745 7.94338 11.6901 7.95015 11.5768L7.59139 11.5011L7.25282 11.7061C7.10782 11.814 7.09702 11.9903 7.14492 12.0948L7.18946 12.1934Z" fill="white"/>
<path d="M9.84961 13.1691C9.91704 13.1664 9.99121 13.1651 10.0728 13.1651C10.0728 13.1651 10.2664 12.6028 10.2771 12.5848C10.1686 12.5372 9.94334 12.4185 9.85634 12.3643C9.91368 12.4494 10.0533 12.5472 10.0256 12.6223L9.84961 13.1691Z" fill="white"/>
<path d="M11.6898 9.83398H6.33984V11.8337C6.33984 12.6513 6.93538 13.1634 7.81408 13.1634C8.54851 13.1634 8.74201 13.1915 9.01518 13.4609C9.20334 13.2746 9.35914 13.2049 9.67878 13.1787L9.68618 13.1479L9.85478 12.6299C9.84534 12.6185 9.56954 12.3069 9.56954 12.3069C9.46028 12.3431 9.36858 12.3491 9.21414 12.3491C9.05564 12.3491 8.87694 12.331 8.68338 12.2948C8.66381 12.2902 8.64561 12.2888 8.62738 12.2888C8.60378 12.2888 8.60178 12.2908 8.59571 12.3022L8.56198 12.3571L8.50061 12.4577L8.38531 12.4315L7.87208 12.3116L7.80191 12.4269L7.81271 12.4389L7.87544 12.5073L7.84781 12.5964C7.81001 12.713 7.68728 12.849 7.65021 12.8866L7.52204 13.0233L7.40541 12.8765L7.31774 12.7673C7.22531 12.6648 7.20378 12.5073 7.25568 12.3424C7.25431 12.3437 7.25228 12.3444 7.25031 12.3444L7.10531 12.4041L7.03984 12.2633L6.99401 12.1635C6.91514 11.9879 6.94408 11.7312 7.15658 11.5764L7.56998 11.3445L7.96314 11.4216C7.97258 11.3841 7.98671 11.25 7.99818 11.2159C7.99078 11.2152 7.98338 11.2132 7.97591 11.2132L7.74934 11.297L7.53081 11.1469C7.53081 11.1469 7.44518 11.0651 7.52271 10.9833L7.73448 10.665L7.19834 9.99615L8.02244 10.3326L8.07711 10.2649L8.18834 10.1329L8.31448 10.2522C8.35021 10.2864 8.37044 10.3286 8.38054 10.3708C8.60781 10.4586 9.01448 10.718 9.05021 11.1395L8.92278 11.1904V11.1938C8.95178 11.2279 8.97604 11.242 8.98344 11.2433L9.57154 11.301C9.58638 11.2983 9.60528 11.2916 9.62618 11.2856C9.69901 11.2608 9.80894 11.2253 9.93908 11.2253C10.045 11.2253 10.1474 11.2494 10.2459 11.295C10.2823 11.2816 10.3269 11.2715 10.3781 11.2682L10.4064 11.2675C10.7214 11.2675 10.8778 11.5013 11.0033 11.6877C11.0242 11.7198 11.0451 11.7507 11.0667 11.7808C11.1766 11.935 11.3202 12.1608 11.3263 12.1702L11.391 12.2707L11.3114 12.3625C11.2501 12.4329 11.1584 12.5153 11.0006 12.5153C10.9682 12.5153 10.9325 12.512 10.894 12.5046C10.8603 12.4986 10.83 12.4885 10.8003 12.4764C10.7956 12.5073 10.7895 12.5441 10.7834 12.5756L10.6802 13.1104C11.2973 12.9596 11.6891 12.4965 11.6891 11.8344L11.6898 9.83398Z" fill="#FFDD2D"/>
<path d="M6.34169 9.67143H10.502C10.2943 9.45833 10.297 9.18827 10.3503 9.01267C10.2896 8.98383 10.2397 8.94897 10.1952 8.91147C10.0326 9.03073 9.53628 9.38997 9.40682 9.47973L9.37918 9.49853L7.74645 9.205H7.71342C7.67432 9.205 7.61699 9.20363 7.55426 9.19627C7.53672 9.26933 7.47336 9.3196 7.40049 9.3196C7.39239 9.3196 7.38296 9.31893 7.37419 9.3169C7.33169 9.30953 7.29466 9.28807 7.26969 9.25257C7.24406 9.21773 7.23396 9.17617 7.24136 9.1333L7.24742 9.09843C7.07882 8.9805 6.92372 8.7171 6.99249 8.43967L6.99922 8.4102L7.02286 8.39343C7.02622 8.39077 7.05452 8.372 7.09636 8.34787L6.97766 8.32977C6.93316 8.32173 6.90349 8.28083 6.91026 8.2373C6.91766 8.19307 6.95946 8.16153 7.00329 8.17027L7.28586 8.2145L7.31149 7.22533L7.73232 6.78304L7.99465 7.33194L7.71745 8.28353L7.96702 8.3224C8.01082 8.3291 8.04119 8.36997 8.03445 8.41487C8.02769 8.4544 7.99399 8.4819 7.95419 8.4819C7.95012 8.4819 7.94542 8.4819 7.94135 8.48123L7.73835 8.4484C7.74109 8.4544 7.74509 8.45773 7.74782 8.46443C7.76939 8.5087 7.81729 8.54087 7.84559 8.55427L9.09055 8.5737C9.14312 8.52277 9.27398 8.39543 9.40818 8.26073C9.10202 8.14547 8.99072 7.88277 8.97182 7.7085C8.80055 7.63614 8.68252 7.5276 8.61712 7.38617C8.53752 7.2113 8.56585 7.03637 8.58675 6.95127C8.42085 6.89094 8.24622 6.78107 8.06815 6.60547H6.19336C6.27363 6.81987 6.34169 7.05247 6.34169 7.28367V9.67143Z" fill="#FFDD2D"/>
<path d="M8.05422 10.7014C8.02385 10.6987 7.99825 10.7221 7.99622 10.7516C7.99419 10.7824 8.01712 10.8086 8.04815 10.8092C8.07779 10.8119 8.10412 10.7891 8.10679 10.759C8.10679 10.7295 8.08526 10.7021 8.05422 10.7014Z" fill="black"/>
<path d="M11.6843 14.3276L11.3761 14.2103L11.461 13.894L11.5548 13.5488C11.5548 13.5488 11.0085 13.8431 10.239 14.0642C10.0205 14.1265 9.85529 14.1547 9.85529 14.1547V14.3892C9.85529 14.3892 9.44393 14.4603 9.02783 14.4603H9.02306H9.01703H9.00893H9.00419C8.58813 14.4603 8.17673 14.3892 8.17673 14.3892V14.1547C8.17673 14.1547 8.01079 14.1265 7.79299 14.0642C7.02349 13.8431 6.47793 13.5488 6.47793 13.5488L6.57029 13.894L6.65729 14.2103L6.34843 14.3276L6.00586 14.4549C6.39903 14.6432 6.94323 14.918 7.44166 15.0533L7.32429 15.3723C7.32429 15.3723 7.95619 15.6585 9.00893 15.6612V15.6619H9.01233H9.01703H9.02109H9.02376V15.6612C10.0779 15.6585 10.7091 15.3723 10.7091 15.3723L10.591 15.0533C11.0894 14.918 11.635 14.6432 12.0262 14.4549L11.6843 14.3276ZM6.37136 14.4763L6.87849 14.3088L6.72879 13.8229C6.95199 13.9489 7.45313 14.1379 7.74306 14.2257L7.49829 14.8938C7.05046 14.7712 6.67753 14.6285 6.37136 14.4763ZM9.01703 15.4936C8.42826 15.4936 7.75589 15.3589 7.55833 15.2893L7.85906 14.4804C8.10859 14.5528 8.62789 14.6298 9.00486 14.6271H9.00556H9.01703H9.02713H9.02849C9.40549 14.6298 9.92339 14.5528 10.1743 14.4804L10.4744 15.2893C10.2768 15.3596 9.60509 15.4936 9.01703 15.4936ZM10.5344 14.8938L10.2903 14.2257C10.5809 14.1379 11.0806 13.9489 11.3046 13.8229L11.1555 14.3088L11.662 14.4763C11.3551 14.6285 10.9842 14.7712 10.5344 14.8938Z" fill="black"/>
<path d="M9.01435 1.70031C9.64155 1.70031 10.1433 1.90674 10.4204 2.12724C10.4204 2.12724 10.5027 1.63464 10.7839 1.19973L10.2788 1.25667L10.0145 0.698452L9.50665 0.958482L9.01435 0.474609L8.52339 0.958482L8.01492 0.698452L7.75123 1.25667L7.24609 1.19973C7.52729 1.63464 7.60959 2.12724 7.60959 2.12724C7.88742 1.90674 8.38782 1.70031 9.01435 1.70031ZM7.72826 1.45236L7.86856 1.46712L7.92926 1.34046L8.10592 0.965178L8.43369 1.13336L8.56049 1.1977L8.66166 1.09854L9.01502 0.750062L9.36909 1.09854L9.47025 1.1977L9.59702 1.13336L9.92278 0.965178L10.1015 1.34046L10.1608 1.46712L10.3011 1.45236L10.4346 1.43627C10.3732 1.57369 10.328 1.70366 10.2956 1.81159C9.94228 1.61591 9.48235 1.50463 9.01369 1.50463C8.54702 1.50463 8.08772 1.61591 7.73299 1.81159C7.69999 1.70366 7.65546 1.57298 7.59406 1.43627L7.72826 1.45236Z" fill="black"/>
<path d="M16.3754 8.23676C17.1868 8.23676 17.4578 7.41652 17.4693 7.38166L17.5597 7.09279L17.2555 7.10219H17.2542C17.147 7.10219 16.252 7.07872 15.6174 6.27722L15.5574 6.20286C15.1427 5.67879 14.7495 5.18086 14.0468 4.95366C14.067 4.93559 14.096 4.91279 14.1358 4.88732C14.5087 4.64339 14.7259 4.34716 14.7805 4.00339C14.8601 3.48602 14.5283 3.07387 14.5135 3.05712L14.2875 2.77968L14.1466 3.10873C14.1372 3.12949 13.8997 3.65626 13.4007 3.65626H13.3636C13.3292 3.65422 13.2968 3.65289 13.2645 3.65019C13.282 3.41499 13.2388 3.05108 12.9071 2.70996C12.5085 2.29916 12.0189 2.2375 11.7626 2.2375C11.6257 2.2375 11.5347 2.25425 11.5252 2.25562L11.184 2.32261L11.3944 2.59806C11.5596 2.81049 11.7093 3.20256 11.5319 3.40762C11.4753 3.47262 11.3587 3.52556 11.2467 3.57849C11.0167 3.68369 10.7031 3.82979 10.7031 4.20242C10.7031 4.44369 10.8913 4.69566 11.2325 4.91009C12.2428 5.54139 12.8659 6.20016 13.135 6.92726C13.5511 8.04579 13.0082 8.68376 12.4808 9.01952L12.2441 9.17096L12.4512 9.35992C12.4788 9.38409 12.7324 9.60589 13.1067 9.63809C13.1775 9.64276 13.2456 9.64676 13.309 9.64676C13.5491 9.64676 13.7534 9.60926 13.9193 9.55896C13.8734 9.63872 13.8175 9.71982 13.7467 9.80159C13.4452 10.1487 13.0743 10.3069 12.5409 10.3149L12.3426 10.3183L12.3271 10.516C12.325 10.5555 12.3102 10.9221 12.6595 11.2337C12.7128 11.2819 12.7776 11.3215 12.845 11.3544C12.6083 11.5661 12.3675 11.9347 12.321 12.5667C12.2819 13.0941 12.1551 13.2891 12.1538 13.2911L11.9346 13.6235L12.3305 13.6289C12.9846 13.6289 13.4857 13.4493 13.833 13.0941C14.038 12.8836 14.1554 12.6464 14.2248 12.436C14.3388 12.5325 14.4858 12.6169 14.6773 12.6618C14.7502 12.6786 14.8298 12.6879 14.9154 12.6879C15.1002 12.6879 15.2546 12.6491 15.2722 12.6451L15.525 12.578L15.4131 12.3435C15.405 12.3247 15.1939 11.8543 15.4212 11.1828C15.519 10.8926 15.5689 10.6326 15.5931 10.4302C15.7523 10.5126 15.9654 10.581 16.2412 10.5816C16.8671 10.5816 17.1429 10.1172 17.1557 10.0978L17.2791 9.88466L17.0505 9.79086C16.3046 9.48326 16.1394 8.65692 16.1064 8.20929C16.1738 8.22202 16.2507 8.23409 16.3377 8.23676H16.3754ZM16.9669 9.98852C16.9669 9.98852 16.7484 10.3659 16.2473 10.3659H16.2412C15.6397 10.3625 15.3969 9.99792 15.3969 9.99792C15.3969 9.99792 15.432 10.4724 15.2148 11.1124C14.9538 11.8838 15.2168 12.4353 15.2168 12.4353C15.2168 12.4353 15.0766 12.4728 14.9147 12.4728C14.8527 12.4728 14.7879 12.4668 14.7272 12.4507C14.2248 12.3321 14.0994 11.8777 14.0994 11.8777C14.0994 11.8777 14.1459 13.4131 12.3446 13.4131H12.3305C12.3305 13.4131 12.4889 13.1986 12.5361 12.5814C12.6218 11.4421 13.398 11.286 13.398 11.286C13.398 11.286 12.9839 11.2344 12.8045 11.0742C12.524 10.8216 12.5435 10.5294 12.5435 10.5294C13.1775 10.5207 13.5922 10.3062 13.9085 9.94232C14.2511 9.54826 14.3078 9.12406 14.3078 9.12406C14.3078 9.12406 13.9672 9.43099 13.3083 9.43099C13.2503 9.43099 13.1883 9.42829 13.1249 9.42226C12.8133 9.39749 12.5975 9.20042 12.5975 9.20042C13.2833 8.76349 13.7649 8.00086 13.338 6.85219C12.9961 5.93209 12.1747 5.24452 11.3479 4.72649C11.0727 4.55559 10.9196 4.36596 10.9196 4.20242C10.9196 3.81776 11.4699 3.80569 11.6959 3.54699C11.9561 3.24677 11.7929 2.75959 11.567 2.46673C11.567 2.46673 11.6432 2.4513 11.7633 2.4513C12.0013 2.4513 12.4134 2.51093 12.7519 2.85941C13.2018 3.32182 13.0149 3.82512 13.0149 3.82512L13.1357 3.84859C13.2078 3.86399 13.2793 3.86669 13.3535 3.87002C13.3697 3.87002 13.3859 3.87069 13.402 3.87069C14.0555 3.87069 14.3476 3.19181 14.3476 3.19181C14.3476 3.19181 15.0422 4.04092 14.0198 4.70569C13.8438 4.81962 13.7662 4.92482 13.7865 5.03742L13.8027 5.11116L13.8755 5.12389C14.6166 5.32359 14.9916 5.83159 15.4495 6.40922C16.1448 7.28782 17.1288 7.31599 17.2501 7.31599H17.263C17.263 7.31599 17.0384 8.02029 16.3768 8.02029C16.366 8.02029 16.3566 8.02029 16.3451 8.01966C16.041 8.00889 15.8852 7.89299 15.8852 7.89299C15.8852 7.89299 15.7658 9.49262 16.9669 9.98852Z" fill="black"/>
<path d="M14.9503 5.04216C15.253 5.2023 15.4291 5.41676 15.5835 5.60706C15.7352 5.79269 15.8796 5.97163 16.1048 6.04603C16.1851 6.07353 16.27 6.08626 16.3564 6.08626C16.6949 6.08626 17.0348 5.8805 17.1636 5.5957L17.2931 5.3102L16.9795 5.29143C16.9647 5.29076 16.5614 5.25456 16.1123 4.7982C15.9275 4.61126 15.7042 4.5127 15.4634 4.5127C15.1694 4.5127 14.9516 4.6588 14.9273 4.67356L14.6387 4.8753L14.9503 5.04216ZM15.4641 4.72853C15.6152 4.72853 15.7912 4.77943 15.9578 4.95033C16.4804 5.47776 16.9667 5.50723 16.9667 5.50723C16.8784 5.70156 16.6221 5.87246 16.357 5.87246C16.2957 5.87246 16.2343 5.8631 16.1729 5.84233C15.8135 5.7217 15.6846 5.18556 15.0527 4.8518C15.0527 4.8518 15.2295 4.72853 15.4641 4.72853Z" fill="black"/>
<path d="M15.0927 7.88854V7.8993C14.9106 6.4397 13.8437 5.38554 12.6568 4.7442C12.5469 4.68587 12.4457 4.63631 12.3473 4.58871C12.7087 4.64434 13.2907 4.65104 13.7399 4.26367C13.7399 4.26367 13.0527 4.7663 11.6445 4.30994C12.0344 4.56124 12.7917 4.91577 13.4829 5.49007C15.2114 6.99924 13.9746 8.47157 13.9746 8.47157C14.5957 7.8276 14.6213 7.13734 14.4386 6.57374C14.7656 7.11454 14.9747 7.77127 14.9423 8.58084C14.8945 9.74087 14.2531 10.7441 13.578 11.5503C13.2536 11.9417 13.1808 12.4222 13.1808 12.4222C13.1808 12.4222 13.3116 11.998 13.6873 11.5617C14.4109 10.72 15.0293 9.84541 15.1102 8.58551C15.1851 8.81407 15.4933 9.45004 15.9822 9.68927C15.9836 9.68994 15.3692 9.32204 15.0927 7.88854Z" fill="black"/>
<path d="M5.87862 13.2909C5.87795 13.2889 5.75252 13.0938 5.71208 12.5664C5.66488 11.9345 5.42475 11.5659 5.18738 11.3541C5.25618 11.3219 5.31955 11.2824 5.37285 11.2335C5.72152 10.9218 5.70665 10.5553 5.70462 10.5158L5.69115 10.3181L5.49152 10.3147C4.95945 10.306 4.58782 10.1478 4.28638 9.80132C4.21625 9.71959 4.15962 9.63849 4.11375 9.55876C4.27962 9.60899 4.48262 9.64656 4.72338 9.64656C4.78815 9.64656 4.85492 9.64249 4.92572 9.63782C5.29998 9.60566 5.55358 9.38449 5.58188 9.35972L5.78892 9.17076L5.55222 9.01926C5.02282 8.68286 4.48195 8.04486 4.89738 6.92706C5.16645 6.19992 5.78892 5.54116 6.80052 4.90986C7.14178 4.69539 7.32855 4.44346 7.32855 4.20219C7.32855 3.82959 7.01565 3.68282 6.78568 3.57826C6.67372 3.52532 6.55708 3.47239 6.50045 3.40739C6.32238 3.20298 6.47275 2.81029 6.63732 2.59782L6.84908 2.32241L6.50648 2.25537C6.49638 2.25405 6.40668 2.2373 6.26912 2.2373C6.01282 2.2373 5.52458 2.29896 5.12532 2.70976C4.79285 3.05154 4.74905 3.41542 4.76588 3.64996C4.73352 3.65266 4.70115 3.65402 4.66742 3.65599H4.63102C4.13062 3.65599 3.89392 3.12929 3.88448 3.10849L3.74348 2.77944L3.51555 3.05688C3.50275 3.07367 3.16961 3.48646 3.25053 4.00316C3.30448 4.34692 3.52162 4.64312 3.89455 4.88709C3.93502 4.91256 3.96335 4.93532 3.98358 4.95346C3.28156 5.18059 2.88905 5.67922 2.47428 6.20326L2.41426 6.27766C1.78036 7.07916 0.883396 7.10266 0.77617 7.10266L0.470703 7.09326L0.56374 7.38206C0.574536 7.41692 0.844966 8.23719 1.65691 8.23719L1.69605 8.23589C1.78168 8.23319 1.85859 8.22179 1.92739 8.20839C1.89363 8.65536 1.7284 9.48169 0.981853 9.78996L0.75391 9.88379L0.87736 10.0969C0.88948 10.1163 1.16599 10.5808 1.79314 10.5808C2.06696 10.5801 2.28005 10.5117 2.43991 10.4293C2.46419 10.6317 2.51408 10.8917 2.61188 11.1819C2.83916 11.8534 2.62739 12.3238 2.61928 12.3426L2.50734 12.5772L2.76093 12.6442C2.77777 12.6482 2.93356 12.687 3.11765 12.687C3.20399 12.687 3.28359 12.6777 3.35508 12.6609C3.54728 12.616 3.69562 12.5316 3.80822 12.4351C3.87702 12.6455 3.99505 12.8827 4.19942 13.0932C4.54735 13.4483 5.04775 13.6279 5.70192 13.6279L6.09848 13.6226L5.87862 13.2909ZM5.68708 13.4135C3.88578 13.4135 3.93168 11.8782 3.93168 11.8782C3.93168 11.8782 3.80625 12.3325 3.30381 12.4512C3.24379 12.4672 3.17971 12.4733 3.11699 12.4733C2.95516 12.4733 2.81554 12.4357 2.81554 12.4357C2.81554 12.4357 3.07719 11.8842 2.8162 11.1129C2.60042 10.4728 2.6355 9.99839 2.6355 9.99839C2.6355 9.99839 2.39337 10.363 1.79116 10.3663H1.78508C1.28402 10.3663 1.0655 9.98899 1.0655 9.98899C2.26591 9.49376 2.14788 7.89476 2.14788 7.89476C2.14788 7.89476 1.99213 8.01002 1.68728 8.02142C1.67648 8.02209 1.66639 8.02209 1.65559 8.02209C0.993313 8.02209 0.769426 7.31776 0.769426 7.31776H0.78291C0.904993 7.31776 1.88759 7.28959 2.58288 6.41102C3.04079 5.83336 3.41642 5.32602 4.15622 5.12569L4.23038 5.11296L4.24662 5.03922C4.26685 4.92662 4.18995 4.82142 4.01395 4.70749C2.99156 4.04202 3.68618 3.19359 3.68618 3.19359C3.68618 3.19359 3.97685 3.87182 4.63168 3.87182C4.64785 3.87182 4.66272 3.87112 4.67955 3.87112C4.75305 3.86709 4.82592 3.86442 4.89738 3.84902L5.01812 3.82556C5.01812 3.82556 4.83128 3.32228 5.28178 2.85987C5.62035 2.51073 6.03238 2.45176 6.26975 2.45176C6.39048 2.45176 6.46535 2.46714 6.46535 2.46714C6.24012 2.76067 6.07692 3.24723 6.33718 3.54746C6.56245 3.80546 7.11208 3.81819 7.11208 4.20286C7.11208 4.36569 6.95902 4.55606 6.68388 4.72692C5.85635 5.24496 5.03498 5.93252 4.69372 6.85266C4.26752 8.00132 4.74835 8.76326 5.43555 9.20089C5.43555 9.20089 5.21975 9.39789 4.90752 9.42272C4.84412 9.42876 4.78275 9.43142 4.72338 9.43142C4.06518 9.43142 3.72462 9.12446 3.72462 9.12446C3.72462 9.12446 3.78125 9.54872 4.12185 9.94276C4.44015 10.3066 4.85492 10.5211 5.48885 10.5298C5.48885 10.5298 5.50908 10.822 5.22852 11.0746C5.04848 11.2341 4.63435 11.2864 4.63435 11.2864C4.63435 11.2864 5.41128 11.4426 5.49625 12.5818C5.54278 13.199 5.69992 13.4135 5.69992 13.4135H5.68708Z" fill="black"/>
<path d="M1.67563 6.08751C1.76263 6.08751 1.8476 6.07475 1.92781 6.04725C2.15443 5.97288 2.29806 5.79395 2.4498 5.60831C2.60494 5.41798 2.7796 5.20355 3.08238 5.04338L3.39397 4.87718L3.10463 4.67545C3.08035 4.66005 2.8632 4.51465 2.56986 4.51465C2.32843 4.51465 2.10454 4.61248 1.92041 4.80008C1.47126 5.25581 1.06866 5.29265 1.05381 5.29335L0.740234 5.31141L0.869058 5.59758C0.998498 5.88105 1.33772 6.08751 1.67563 6.08751ZM2.07484 4.95158C2.24209 4.78065 2.41812 4.72975 2.56986 4.72975C2.80318 4.72975 2.97986 4.85302 2.97986 4.85302C2.34866 5.18745 2.21917 5.72295 1.85835 5.84355C1.79903 5.86431 1.73698 5.87371 1.67563 5.87371C1.41057 5.87371 1.15429 5.70348 1.06663 5.50848C1.06663 5.50782 1.55218 5.47828 2.07484 4.95158Z" fill="black"/>
<path d="M3.09138 8.58279C3.05766 7.77322 3.26674 7.11646 3.59447 6.57566C3.4117 7.13926 3.43667 7.82952 4.05847 8.47356C4.05847 8.47356 2.82161 7.00122 4.55074 5.49202C5.2427 4.91769 5.99937 4.56316 6.3885 4.31186C4.98104 4.76822 4.2938 4.26562 4.2938 4.26562C4.74294 4.65299 5.32497 4.64629 5.68647 4.59002C5.58867 4.63756 5.48614 4.68716 5.37754 4.74546C4.1893 5.38679 3.12307 6.44096 2.9403 7.90056V7.88919C2.66449 9.32266 2.05078 9.69055 2.05078 9.69055C2.53906 9.45129 2.8466 8.81599 2.92143 8.58682C3.00306 9.84672 3.62144 10.7213 4.34507 11.563C4.7207 11.9992 4.8529 12.4235 4.8529 12.4235C4.8529 12.4235 4.7794 11.9429 4.45367 11.5516C3.77994 10.7467 3.13858 9.74282 3.09138 8.58279Z" fill="black"/>
<path d="M8.60913 5.629V5.9185C8.70963 5.7972 8.90386 5.82203 8.90386 5.82203V6.23953C8.90386 6.23953 8.8971 6.4446 8.8236 6.5337H9.034H9.24373C9.1716 6.44526 9.16413 6.23953 9.16413 6.23953V5.82203C9.16413 5.82203 9.35836 5.7972 9.4582 5.9185V5.629H9.034H8.60913Z" fill="black"/>
<path d="M8.42969 3.91368C8.56388 4.01962 8.64145 4.03702 8.64415 4.03905L8.69675 4.06315V3.79038L8.20312 3.58398C8.20312 3.58465 8.20782 3.74212 8.42969 3.91368Z" fill="black"/>
<path d="M9.60426 3.91368C9.82749 3.74212 9.83152 3.58398 9.83152 3.58398L9.33789 3.79038V4.06315L9.38979 4.03905C9.39319 4.03702 9.47006 4.01962 9.60426 3.91368Z" fill="black"/>
<path d="M10.4918 2.803C10.4918 2.38951 9.79106 2.01758 9.01753 2.01758H9.01686H9.01486H9.01283C8.23929 2.01758 7.53859 2.38951 7.53859 2.803L7.55413 2.90485L7.86296 4.66669L7.55279 4.84563L6.75023 5.31139H6.75296C6.75296 5.31139 6.57223 5.40319 6.48856 5.46016C6.18309 5.67129 6.11836 5.97886 6.29569 6.10619C6.33956 5.85556 6.53916 5.59286 6.91276 5.59286C7.18186 5.59286 7.38686 5.73089 7.55279 5.93799C7.59526 5.99026 7.63573 6.04589 7.67349 6.10619C7.71999 6.18189 7.76653 6.24829 7.81309 6.31263H5.74609C5.89783 6.61619 6.04213 6.93789 6.04213 7.28703V11.8334C6.04213 12.9338 6.89389 13.4592 7.81509 13.4592C8.52726 13.4592 8.62306 13.427 9.01623 13.8157C9.40736 13.4263 9.50313 13.4592 10.216 13.4592C11.1378 13.4592 11.9883 12.9338 11.9883 11.8334V7.28703C11.9883 6.93789 12.1326 6.61619 12.285 6.31263H10.2173C10.2632 6.24893 10.3097 6.18189 10.3562 6.10619C10.3947 6.04589 10.4344 5.99026 10.4763 5.93799C10.6435 5.73026 10.8478 5.59286 11.1169 5.59286C11.4905 5.59286 11.6895 5.85489 11.734 6.10619C11.9114 5.97886 11.8473 5.67129 11.5398 5.46016C11.4575 5.40319 11.2767 5.31139 11.2767 5.31139H11.2795L10.4769 4.84563L10.1681 4.66669L10.4769 2.90485L10.4918 2.803ZM7.84273 3.00807L8.92853 3.37396V5.06879L8.12939 4.64996L7.84273 3.00807ZM8.06733 6.60813C8.24539 6.78436 8.42006 6.89363 8.58593 6.95393C8.56433 7.03906 8.53606 7.21466 8.61629 7.38953C8.68169 7.53026 8.80039 7.63886 8.97099 7.71123C8.98989 7.88549 9.10049 8.14749 9.40736 8.26346C9.27316 8.39813 9.14229 8.52479 9.08903 8.57639L7.84476 8.55696C7.81646 8.54286 7.76856 8.51139 7.74703 8.46649C7.74429 8.46046 7.74026 8.45709 7.73826 8.45039L7.94119 8.48323C7.94596 8.48389 7.94996 8.48389 7.95403 8.48389C7.99316 8.48389 8.02753 8.45709 8.03429 8.41689C8.04103 8.37199 8.01069 8.33109 7.96686 8.32439L7.71733 8.28553L7.99449 7.33456L7.73216 6.78573L7.31136 7.22806L7.28569 8.21716L7.00316 8.17296C6.95929 8.16423 6.91749 8.19643 6.91009 8.23996C6.90333 8.28356 6.93299 8.32439 6.97749 8.33246L7.09619 8.35053C7.05373 8.37469 7.02609 8.39343 7.02269 8.39609L6.99839 8.41286L6.99166 8.44239C6.92289 8.71983 7.07866 8.98319 7.24663 9.10113L7.24053 9.13596C7.23379 9.17889 7.24323 9.22039 7.26886 9.25526C7.29313 9.29079 7.33089 9.31223 7.37269 9.31959C7.38149 9.32093 7.39089 9.32159 7.39903 9.32159C7.47183 9.32159 7.53526 9.27133 7.55346 9.19833C7.61616 9.20566 7.67349 9.20699 7.71259 9.20699H7.74566L9.37836 9.49986L9.40599 9.48179C9.53613 9.39129 10.0318 9.03213 10.1944 8.91346C10.2389 8.95169 10.2888 8.98656 10.3495 9.01533C10.2969 9.19089 10.2935 9.46099 10.5019 9.67413H6.34089V7.28769C6.34089 7.05649 6.27279 6.82396 6.19253 6.60949H8.06733V6.60813ZM10.0851 8.79153C9.91989 8.91216 9.49503 9.22039 9.34126 9.32763L7.85759 9.06293C7.86099 9.04953 7.86433 9.03679 7.86773 9.02339C7.88726 8.94696 7.90683 8.84243 7.90819 8.71983L9.15513 8.73993L9.17873 8.71576C9.19763 8.69703 9.59283 8.31769 9.79446 8.09923C9.84233 8.15886 9.90233 8.21586 9.98056 8.26609C9.95359 8.41086 9.96506 8.61726 10.0851 8.79153ZM7.60133 8.53616C7.63639 8.60923 7.69976 8.65816 7.74363 8.68563C7.74226 8.75396 7.73553 8.86053 7.71733 8.95436C7.71326 8.97513 7.70789 8.99456 7.70179 9.01399C7.69846 9.02609 7.69506 9.03613 7.69236 9.04416C7.62696 9.04416 7.49813 9.03613 7.39293 8.99793C7.27629 8.95503 7.10229 8.74259 7.14273 8.50873C7.19333 8.47786 7.30999 8.41286 7.41926 8.41286C7.50356 8.41219 7.56086 8.45173 7.60133 8.53616ZM7.44689 8.24199L7.47183 7.29236L7.68629 7.06653L7.82119 7.34666L7.55546 8.25806L7.44689 8.24199ZM10.0716 13.165C9.99069 13.165 9.91583 13.1663 9.84839 13.169L10.0251 12.6228C10.0528 12.5471 9.91313 12.4499 9.85579 12.3648C9.94279 12.4191 10.1681 12.5377 10.2767 12.5853C10.2652 12.6027 10.0716 13.165 10.0716 13.165ZM10.626 12.5444L10.5107 13.1422C10.4372 13.1522 10.3589 13.1576 10.2787 13.1609L10.4001 12.586C10.4365 12.415 9.97453 12.3621 9.74659 12.0264C9.63529 12.151 9.42556 12.1879 9.21516 12.1879C9.02296 12.1879 8.83076 12.157 8.71406 12.1343C8.68439 12.1296 8.65606 12.1262 8.62843 12.1262C8.56099 12.1262 8.49959 12.147 8.45713 12.218L8.42339 12.2743L7.79423 12.1269L7.63776 12.3842C7.61549 12.4258 7.61413 12.4613 7.64989 12.5001L7.69236 12.5464C7.66336 12.6376 7.53256 12.7749 7.53256 12.7749L7.43883 12.659C7.36459 12.5766 7.37676 12.4265 7.45433 12.2871L7.70383 11.8682L8.23663 11.9446L8.15366 11.757C8.04239 11.509 8.21166 11.1934 8.22986 11.0117C8.22379 11.0667 8.17319 11.0788 8.11386 11.0788C8.05993 11.0788 7.99989 11.0687 7.96009 11.0687C7.94459 11.0687 7.93109 11.07 7.92369 11.0754L7.77936 11.1625L7.66539 11.0627C7.65189 11.0432 7.64719 10.9983 7.68089 10.9648L7.94459 10.6713L7.63306 10.3101L8.06936 10.5279L8.20219 10.3677C8.23866 10.4033 8.22313 10.4964 8.22313 10.4964C8.35936 10.4997 8.74103 10.7095 8.76129 11.1987C8.76263 11.2134 8.76263 11.2302 8.76263 11.2463C8.76263 11.2463 8.76603 11.2523 8.77276 11.2624C8.79973 11.2993 8.87389 11.3937 8.96829 11.4024L9.57123 11.4614H9.57389C9.64003 11.4614 9.77153 11.3844 9.94009 11.3844C10.0318 11.3844 10.1343 11.4078 10.2436 11.4762C10.2436 11.4762 10.2982 11.4333 10.3872 11.4286C10.394 11.4279 10.4014 11.4279 10.4082 11.4279C10.6786 11.4279 10.7905 11.6705 10.9355 11.8722C11.0448 12.0257 11.1905 12.2536 11.1905 12.2536C11.1365 12.3172 11.0866 12.3521 11.003 12.3521C10.9801 12.3521 10.9537 12.35 10.9254 12.3447C10.6354 12.2917 10.5936 11.6993 10.4284 11.6524C10.4196 11.6497 10.4102 11.6491 10.4021 11.6491C10.3488 11.6491 10.3252 11.696 10.3252 11.696C10.4007 11.8977 10.3569 11.9795 10.4378 12.1349C10.4985 12.2502 10.6064 12.3454 10.6509 12.3903C10.6509 12.3916 10.6388 12.4787 10.626 12.5444ZM7.38823 11.9788L7.41586 12.0478C7.39766 12.1081 7.18863 12.1939 7.18863 12.1939L7.14339 12.096C7.09553 11.9915 7.10563 11.8153 7.25133 11.7074L7.58986 11.5023L7.94866 11.578C7.94189 11.6913 8.00999 11.7757 8.00999 11.7757L7.63369 11.704L7.40846 11.8588C7.37069 11.885 7.36799 11.9339 7.38823 11.9788ZM10.6826 13.1094L10.7858 12.5745C10.7912 12.5431 10.7979 12.5062 10.8027 12.4754C10.8317 12.4875 10.8627 12.4975 10.8964 12.5035C10.9348 12.5109 10.9706 12.5142 11.003 12.5142C11.1608 12.5142 11.2525 12.4318 11.3139 12.3614L11.3935 12.2696L11.3287 12.1691C11.3226 12.1591 11.1797 11.9339 11.0691 11.7797C11.0475 11.7496 11.0265 11.7194 11.0057 11.6866C10.8802 11.5003 10.7231 11.2664 10.4082 11.2664L10.3798 11.2671C10.3279 11.2704 10.2834 11.2805 10.2477 11.2939C10.1485 11.2476 10.0467 11.2242 9.94076 11.2242C9.81063 11.2242 9.70069 11.2597 9.62786 11.2845C9.60696 11.2905 9.58809 11.2972 9.57326 11.2999L8.98449 11.2423C8.97709 11.241 8.95279 11.2269 8.92379 11.192V11.1893L9.05126 11.1384C9.01553 10.7169 8.60819 10.4575 8.38093 10.3697C8.37083 10.3275 8.35059 10.2853 8.31486 10.2511L8.18806 10.1318L8.07676 10.2645L8.02216 10.3322L7.19806 9.99576L7.73419 10.6646L7.52243 10.9829C7.44486 11.0647 7.53053 11.1465 7.53053 11.1465L7.74899 11.2959L7.97563 11.2121C7.98369 11.2121 7.99046 11.2142 7.99786 11.2148C7.98709 11.249 7.97293 11.383 7.96346 11.4205L7.57029 11.3435L7.15689 11.5754C6.94446 11.7302 6.91546 11.9868 6.99439 12.1624L7.04023 12.2622L7.10563 12.403L7.24996 12.3433C7.25199 12.3427 7.25403 12.342 7.25533 12.3407C7.20343 12.5055 7.22436 12.6623 7.31739 12.7656L7.40506 12.8755L7.52176 13.0222L7.64989 12.8855C7.68766 12.848 7.80973 12.712 7.84749 12.5953L7.87513 12.5062L7.81243 12.4378L7.80229 12.4258L7.87246 12.3105L8.38563 12.4305L8.50096 12.4566L8.56233 12.3561L8.59606 12.3011C8.60213 12.2897 8.60413 12.2877 8.62776 12.2877C8.64596 12.2877 8.66416 12.2897 8.68373 12.2938C8.87726 12.3299 9.05596 12.3481 9.21446 12.3481C9.36823 12.3481 9.45993 12.342 9.56986 12.3058C9.56986 12.3058 9.84569 12.6168 9.85513 12.6288L9.68656 13.1462L9.67913 13.1777C9.35946 13.2031 9.20369 13.2729 9.01553 13.4598C8.74239 13.1904 8.54883 13.1623 7.81446 13.1623C6.93569 13.1623 6.34023 12.6503 6.34023 11.8327V9.83363H11.6895L11.6909 11.8327C11.6915 12.4961 11.2997 12.9585 10.6826 13.1094ZM11.8392 6.60813C11.7576 6.82259 11.6895 7.05516 11.6895 7.28636L11.6902 8.77813C11.3766 8.72586 11.3395 8.39006 11.3381 8.37536L11.3321 8.30699L11.2646 8.30096C11.1284 8.28823 11.038 8.23056 10.9618 8.15689C10.8081 8.00409 10.8074 7.75613 10.8081 7.75409C10.8061 7.76683 10.6388 7.99936 10.833 8.25336C10.9146 8.36059 11.0326 8.42629 11.1857 8.45243C11.2215 8.63873 11.3611 8.90139 11.6902 8.94163V9.67209H10.7649C10.338 9.43623 10.5187 9.02069 10.5275 9.00329L10.5639 8.92419L10.4823 8.89336C10.0204 8.72316 10.1472 8.26476 10.1539 8.24533L10.1728 8.17829L10.1101 8.14883C9.72833 7.97323 9.78029 7.49946 9.78503 7.48003C9.66766 7.57449 9.62516 7.76749 9.70609 7.95649C9.66226 8.00609 9.60363 8.06639 9.53953 8.13206C9.14433 8.03226 9.13223 7.67103 9.13223 7.65429L9.13149 7.59863L9.07959 7.57853C8.92516 7.52156 8.81926 7.43646 8.76733 7.32183C8.70869 7.19523 8.72956 7.06253 8.74579 6.99883C8.79096 7.00889 8.83613 7.01629 8.87929 7.01963C8.92379 7.02429 8.96966 7.02699 9.01553 7.02699H9.01823H9.02159C9.06746 7.02699 9.11266 7.02429 9.15716 7.01963C9.40329 6.99549 9.67913 6.89029 9.96643 6.60746H11.8392V6.60813ZM10.3974 5.10026L10.7629 5.31139H10.7683L10.86 5.36433C10.6536 5.42129 10.4958 5.52383 10.3637 5.65853C10.3589 5.66256 10.3542 5.66793 10.3495 5.67259C10.3191 5.70476 10.2888 5.73963 10.2605 5.77516C10.2551 5.78186 10.2497 5.78923 10.2436 5.79659C10.2153 5.83276 10.189 5.86966 10.1633 5.90849C10.1593 5.91523 10.1546 5.92193 10.1499 5.92793C10.1195 5.97283 10.0905 6.02109 10.0615 6.07066C9.80119 6.51633 9.38576 6.78239 9.01623 6.78306C8.64733 6.78239 8.23189 6.51633 7.97156 6.07066C7.94323 6.02239 7.91493 5.97553 7.88456 5.92993C7.87849 5.92123 7.87309 5.91253 7.86773 5.90513C7.84209 5.86829 7.81646 5.83209 7.79016 5.79796C7.78343 5.78856 7.77733 5.78116 7.77059 5.77313C7.74226 5.73893 7.71326 5.70476 7.68426 5.67326C7.67823 5.66859 7.67416 5.66256 7.66809 5.65719C7.53526 5.52249 7.37809 5.42063 7.17106 5.36433L7.26413 5.31139H7.26816L7.63369 5.10026L8.00933 4.88653L9.01283 5.42933L9.01486 5.42733L9.01753 5.42933L10.021 4.88653L10.3974 5.10026ZM9.90233 4.65059L9.10253 5.06946V3.37396L10.1876 3.00807L9.90233 4.65059ZM9.01553 3.18766L7.82589 2.72058C7.92706 2.48267 8.39373 2.28025 9.01553 2.27959C9.63799 2.28025 10.1047 2.48267 10.2052 2.72058L9.01553 3.18766Z" fill="black"/>
<path d="M23.747 10.2796V7.59617H25.3309V6.61971H21.0098V7.59617H22.5936V10.2796H23.747ZM26.9073 8.7495V6.61971H25.7925V10.2796H26.7766L28.6988 8.14977V10.2796H29.8137V6.61971H28.8295L26.9073 8.7495ZM33.5645 8.91867V10.2796H34.6795V6.61971H33.5645V7.95754H31.7729V6.61971H30.6581V10.2796H31.7729V8.91867H33.5645ZM37.7841 10.2796C38.0378 10.2796 38.2685 10.2565 38.4838 10.195C39.0608 10.0336 39.4371 9.5645 39.4371 8.92634C39.4371 8.31894 39.1145 7.89607 38.5995 7.70381C38.3528 7.61157 38.0611 7.60387 37.7841 7.60387H36.6385V6.61971H35.5238V10.2796H37.7841ZM37.5918 8.46504C37.7458 8.46504 37.8918 8.46504 38.0225 8.51117C38.2071 8.57267 38.3148 8.72644 38.3148 8.91097C38.3148 9.1032 38.2071 9.26467 38.0301 9.34153C37.9071 9.39537 37.7841 9.39537 37.5918 9.39537H36.6385V8.46504H37.5918ZM41.4361 8.8956L42.7665 10.2796H44.2501L42.3975 8.37274L44.1811 6.61971H42.7818L41.4361 7.99601H41.1288V6.61971H40.0141V10.2796H41.1288V8.8956H41.4361ZM46.5441 6.51978C45.0448 6.51978 44.1455 7.36551 44.1455 8.4573C44.1455 9.54917 45.0448 10.3949 46.5441 10.3949C48.0361 10.3949 48.9358 9.54917 48.9358 8.4573C48.9358 7.36551 48.0361 6.51978 46.5441 6.51978ZM46.5441 9.50303C45.7985 9.50303 45.3221 9.05707 45.3221 8.4573C45.3221 7.85764 45.7985 7.41934 46.5441 7.41934C47.2825 7.41934 47.7668 7.85764 47.7668 8.4573C47.7668 9.05707 47.2825 9.50303 46.5441 9.50303ZM52.6488 6.41211H51.5338V6.78114C50.1345 6.81191 49.2961 7.40394 49.2961 8.44964C49.2961 9.4953 50.1345 10.0412 51.5338 10.072V10.4411H52.6488V10.072C54.0555 10.0412 54.8938 9.4953 54.8938 8.44964C54.8938 7.40394 54.0555 6.81191 52.6488 6.78114V6.41211ZM51.5338 9.28773C50.7648 9.25697 50.4265 8.94174 50.4265 8.44964C50.4265 7.95754 50.7648 7.60387 51.5338 7.57314V9.28773ZM52.6488 7.57314C53.4255 7.60387 53.7558 7.95754 53.7558 8.44964C53.7558 8.94174 53.4255 9.25697 52.6488 9.28773V7.57314ZM58.6028 6.41211H57.4878V6.78114C56.0885 6.81191 55.2508 7.40394 55.2508 8.44964C55.2508 9.4953 56.0885 10.0412 57.4878 10.072V10.4411H58.6028V10.072C60.0101 10.0412 60.8481 9.4953 60.8481 8.44964C60.8481 7.40394 60.0101 6.81191 58.6028 6.78114V6.41211ZM57.4878 9.28773C56.7191 9.25697 56.3808 8.94174 56.3808 8.44964C56.3808 7.95754 56.7191 7.60387 57.4878 7.57314V9.28773ZM58.6028 7.57314C59.3795 7.60387 59.7101 7.95754 59.7101 8.44964C59.7101 8.94174 59.3795 9.25697 58.6028 9.28773V7.57314Z" fill="#6B6B6B"/>
</g>
<defs>
<clipPath id="clip0_1_3637">
<rect width="61" height="16" fill="white"/>
</clipPath>
</defs>
</svg>
