<svg width="14" height="16" viewBox="0 0 14 16" fill="none" xmlns="http://www.w3.org/2000/svg">
<path d="M8.88671 4.85742H5.38672V11.1463H8.88671V4.85742Z" fill="#FF5F00"/>
<path d="M5.60655 8C5.60655 6.72222 6.20655 5.58889 7.12877 4.85556C6.451 4.32222 5.59544 4 4.66211 4C2.451 4 0.662109 5.78889 0.662109 8C0.662109 10.2111 2.451 12 4.66211 12C5.59544 12 6.451 11.6778 7.12877 11.1444C6.20655 10.4222 5.60655 9.27778 5.60655 8Z" fill="#EB001B"/>
<path d="M13.6034 8C13.6034 10.2111 11.8145 12 9.60338 12C8.67005 12 7.81449 11.6778 7.13672 11.1444C8.07005 10.4111 8.65894 9.27778 8.65894 8C8.65894 6.72222 8.05894 5.58889 7.13672 4.85556C7.81449 4.32222 8.67005 4 9.60338 4C11.8145 4 13.6034 5.8 13.6034 8Z" fill="#F79E1B"/>
</svg>
