<svg width="29" height="16" viewBox="0 0 29 16" fill="none" xmlns="http://www.w3.org/2000/svg">
<path fill-rule="evenodd" clip-rule="evenodd" d="M8.17822 4V4.00349C8.17473 4.00349 7.07429 4 6.78084 5.05153C6.51185 6.01572 5.75377 8.67773 5.73281 8.75109H5.5232C5.5232 8.75109 4.74765 6.02969 4.47516 5.04804C4.18171 3.99651 3.07778 4 3.07778 4H0.5625V12H3.07778V7.24891H3.18259H3.28739L4.75464 12H6.50137L7.96861 7.2524H8.17822V12H10.6935V4H8.17822Z" fill="#4DB45E"/>
<path fill-rule="evenodd" clip-rule="evenodd" d="M17.3649 4C17.3649 4 16.6278 4.06638 16.2819 4.83843L14.5003 8.75109H14.2907V4H11.7754V12H14.1509C14.1509 12 14.923 11.9301 15.2688 11.1616L17.0156 7.24891H17.2252V12H19.7405V4H17.3649Z" fill="#4DB45E"/>
<path fill-rule="evenodd" clip-rule="evenodd" d="M20.8633 7.63477V12.0016H23.3786V9.45136H26.1035C27.2912 9.45136 28.2973 8.69328 28.6711 7.63477H20.8633Z" fill="#4DB45E"/>
<path fill-rule="evenodd" clip-rule="evenodd" d="M26.0989 4H20.5059C20.7853 5.52314 21.9277 6.74585 23.4054 7.1441C23.7408 7.23493 24.0936 7.28384 24.4569 7.28384H28.7679C28.8063 7.10218 28.8238 6.91703 28.8238 6.72489C28.8238 5.21921 27.6045 4 26.0989 4Z" fill="url(#paint0_linear_1_3611)"/>
<defs>
<linearGradient id="paint0_linear_1_3611" x1="20.5065" y1="5.64192" x2="28.8238" y2="5.64192" gradientUnits="userSpaceOnUse">
<stop offset="0.3" stop-color="#00B4E6"/>
<stop offset="1" stop-color="#088CCB"/>
</linearGradient>
</defs>
</svg>
